HIERARCHY
ROOT Hips
{
	OFFSET 0.000000 0.000000 0.000000
	CHANNELS 6 Xposition Yposition Zposition Zrotation Yrotation Xrotation 
	JOINT LHipJoint
	{
		OFFSET 0.000000 0.000000 0.000000
		CHANNELS 3 Zrotation Yrotation Xrotation
		JOINT LeftUpLeg
		{
			OFFSET 1.363060 -1.794630 0.839290
			CHANNELS 3 Zrotation Yrotation Xrotation
			JOINT LeftLeg
			{
				OFFSET 2.448110 -6.726130 0.000000
				CHANNELS 3 Zrotation Yrotation Xrotation
				JOINT LeftFoot
				{
					OFFSET 2.562200 -7.039590 0.000000
					CHANNELS 3 Zrotation Yrotation Xrotation
					JOINT LeftToeBase
					{
						OFFSET 0.157640 -0.433110 2.322550
						CHANNELS 3 Zrotation Yrotation Xrotation
						End Site
						{
							OFFSET 0.000000 0.000000 0.000000
						}
					}
				}
			}
		}
	}
	JOINT RHipJoint
	{
		OFFSET 0.000000 0.000000 0.000000
		CHANNELS 3 Zrotation Yrotation Xrotation
		JOINT RightUpLeg
		{
			OFFSET -1.305520 -1.794630 0.839290
			CHANNELS 3 Zrotation Yrotation Xrotation
			JOINT RightLeg
			{
				OFFSET -2.542530 -6.985550 0.000000
				CHANNELS 3 Zrotation Yrotation Xrotation
				JOINT RightFoot
				{
					OFFSET -2.568260 -7.056230 0.000000
					CHANNELS 3 Zrotation Yrotation Xrotation
					JOINT RightToeBase
					{
						OFFSET -0.164730 -0.452590 2.363150
						CHANNELS 3 Zrotation Yrotation Xrotation
						End Site
						{
							OFFSET 0.000000 0.000000 0.000000
						}
					}
				}
			}
		}
	}
}
MOTION
Frames: 30
Frame Time: 0.008333
23.195699 14.411464 2.302640 -26.330476 -88.239803 69.190319 -7.007598 -2.271678 1.462213 -12.882136 -10.568400 -99.522145 -0.472223 5.903321 64.457130 2.370161 7.547532 -12.743450 -0.090699 -0.000000 -18.455401 11.319588 -3.036654 -3.593846 11.368049 -4.300628 -16.671289 1.971615 -2.509375 40.288629 0.085158 3.652071 -7.376993 -0.000900 0.000000 -80.374500
22.968480 14.395554 2.309171 0.876648 -88.638370 41.997786 -7.768520 -2.211869 1.617551 -12.707445 -11.041994 -99.271325 -0.303242 6.066810 65.636805 2.443068 7.759039 -13.467218 -0.222400 0.000001 -16.384500 10.463326 -3.051917 -3.737834 11.408851 -4.342249 -16.841560 1.644169 -2.544231 41.903504 0.014232 2.903755 -5.732987 0.049200 -0.000000 -78.778100
22.748690 14.389442 2.305243 4.826474 -88.730092 38.014720 -7.835532 -2.189059 1.493601 -12.867535 -10.911283 -98.814545 -0.196350 6.138122 66.839038 2.515592 7.936882 -14.477544 -0.419900 0.000000 -14.351200 10.456157 -2.999267 -3.679250 11.303634 -3.844145 -17.390800 1.303794 -2.661900 44.024772 -0.122058 1.806988 -4.592832 0.039501 -0.000000 -76.658400
22.532235 14.387717 2.302430 7.908511 -88.819096 34.933602 -7.883351 -2.161814 1.384580 -13.022982 -10.777695 -98.319434 -0.107535 6.190409 67.903778 2.609044 8.183873 -15.546341 -0.635700 -0.000001 -12.638100 10.481592 -2.918380 -3.627393 11.232553 -3.383916 -18.228098 0.968233 -2.783041 46.472181 -0.319473 0.353346 -3.921524 -0.031200 -0.000001 -74.040700
22.319259 14.390357 2.300793 10.439181 -88.914939 32.437119 -7.921413 -2.133759 1.290888 -13.163355 -10.639032 -97.798595 -0.032290 6.227190 68.842870 2.717855 8.489454 -16.618568 -0.864000 -0.000000 -11.355600 10.528927 -2.809008 -3.586055 11.187127 -2.978282 -19.335986 0.643184 -2.906184 49.194807 -0.577301 -1.442822 -3.731171 -0.148700 0.000000 -70.976800
22.110001 14.397368 2.300691 12.258782 -88.998119 30.678576 -7.953125 -2.120026 1.207638 -13.272248 -10.494239 -97.254849 0.033656 6.248024 69.670170 2.834833 8.834955 -17.653575 -1.099300 0.000000 -10.552100 10.591834 -2.679495 -3.559421 11.173748 -2.639958 -20.685246 0.336351 -3.036247 52.124295 -0.893208 -3.540404 -3.997320 -0.281199 0.000000 -67.472600
21.904732 14.408676 2.302222 13.389184 -89.063237 29.629333 -7.982316 -2.125269 1.131004 -13.348836 -10.342041 -96.688530 0.091833 6.254409 70.395048 2.953485 9.200074 -18.626638 -1.336200 0.000000 -10.219900 10.664467 -2.534243 -3.550366 11.186980 -2.380430 -22.248912 0.052215 -3.177599 55.196355 -1.259346 -5.856863 -4.680837 -0.383401 0.000000 -63.474900
21.703593 14.424143 2.305526 13.696285 -89.096500 29.416659 -8.010058 -2.156848 1.055841 -13.393711 -10.181893 -96.095775 0.142457 6.246432 71.025034 3.067851 9.562783 -19.528907 -1.570499 -0.000000 -10.300900 10.742895 -2.381422 -3.559870 11.225391 -2.203268 -23.999089 -0.205371 -3.337007 58.344014 -1.662513 -8.284981 -5.732619 -0.405500 -0.000001 -58.920800
21.506539 14.443494 2.310843 12.797792 -89.069970 30.414150 -8.033560 -2.227830 0.974907 -13.406946 -10.013999 -95.466914 0.185393 6.221863 71.569332 3.173143 9.902978 -20.365269 -1.799700 0.000000 -10.702900 10.826287 -2.234998 -3.587741 11.294941 -2.107574 -25.906581 -0.433281 -3.524474 61.500886 -2.084079 -10.702520 -7.092238 -0.303300 -0.000001 -53.807000
21.313487 14.466297 2.318286 10.360550 -88.961901 32.946976 -8.044462 -2.343185 0.882375 -13.391346 -9.836336 -94.794397 0.219999 6.178418 72.036656 3.266643 10.205316 -21.149925 -2.023200 0.000000 -11.315500 10.920495 -2.104605 -3.631055 11.400048 -2.086103 -27.946118 -0.632146 -3.747433 64.608965 -2.501003 -12.981048 -8.693731 -0.048601 -0.000000 -48.187700
21.124204 14.491944 2.327866 6.016314 -88.753871 37.375832 -8.025625 -2.497729 0.773446 -13.346587 -9.641586 -94.072671 0.246191 6.113226 72.437831 3.347501 10.459227 -21.903176 -2.242000 0.000000 -12.027000 11.041656 -1.992701 -3.684289 11.550637 -2.123682 -30.090950 -0.805731 -4.008664 67.617087 -2.889485 -15.003340 -10.464825 0.362600 0.000000 -42.194400
20.938362 14.519835 2.339553 -0.479588 -88.446260 43.933123 -7.954554 -2.665083 0.646362 -13.269160 -9.409602 -93.305389 0.264637 6.026789 72.785005 3.417080 10.661152 -22.646664 -2.458500 -0.000000 -12.738300 11.212775 -1.884354 -3.739691 11.758279 -2.193192 -32.311170 -0.961973 -4.300170 70.486249 -3.228466 -16.675669 -12.327850 0.906400 0.000000 -36.036401
20.755468 14.549201 2.353160 -9.003143 -88.072919 52.485419 -7.823179 -2.795634 0.504832 -13.157520 -9.104676 -92.505646 0.275542 5.929009 73.087457 3.478393 10.813812 -23.400920 -2.675199 0.000000 -13.373400 11.442826 -1.745394 -3.789135 12.027760 -2.253794 -34.570787 -1.111649 -4.598050 73.190614 -3.502434 -17.935525 -14.203946 1.533900 0.000000 -29.966900
20.574936 14.579328 2.368445 -18.800967 -87.694945 62.270519 -7.662793 -2.845245 0.356082 -13.024373 -8.693957 -91.688000 0.277390 5.840156 73.346879 3.535039 10.927835 -24.180058 -2.894200 -0.000001 -13.888000 11.697389 -1.543207 -3.829130 12.343866 -2.265016 -36.838053 -1.263453 -4.872177 75.719659 -3.702631 -18.752611 -16.017810 2.180800 -0.000001 -24.263499
20.396598 14.609465 2.385037 -28.629314 -87.358873 72.045862 -7.532756 -2.817258 0.204793 -12.893448 -8.176622 -90.849355 0.267632 5.777202 73.559996 3.588982 11.016272 -24.988953 -3.116599 0.000000 -14.267100 11.909558 -1.281083 -3.861645 12.678131 -2.210580 -39.097507 -1.417505 -5.108511 78.065174 -3.827080 -19.129446 -17.704467 2.781200 -0.000000 -19.182500
20.219386 14.639214 2.402523 -37.431643 -87.073312 80.758712 -7.471441 -2.754414 0.050158 -12.784110 -7.581330 -89.971502 0.245448 5.741480 73.725541 3.640027 11.089578 -25.817271 -3.341300 0.000000 -14.545800 12.033901 -0.993708 -3.887406 13.009463 -2.097356 -41.351555 -1.567166 -5.315337 80.212937 -3.879490 -19.097923 -19.220147 3.283100 0.000001 -14.844000
20.043223 14.668002 2.420439 -44.611530 -86.825658 87.817861 -7.481643 -2.700014 -0.112102 -12.696846 -6.943548 -89.039584 0.213067 5.724258 73.853840 3.687452 11.154784 -26.652446 -3.567000 0.000001 -14.758900 12.064312 -0.714910 -3.906837 13.333673 -1.940490 -43.606496 -1.706748 -5.507993 82.150906 -3.867962 -18.715600 -20.532891 3.653700 0.000000 -11.415500
19.867427 14.695591 2.438318 -50.170689 -86.602174 93.227937 -7.544645 -2.672394 -0.284066 -12.624343 -6.285586 -88.049898 0.173732 5.715763 73.954929 3.730651 11.216290 -27.476516 -3.790800 0.000000 -14.969000 12.020183 -0.459223 -3.916200 13.652709 -1.746505 -45.866820 -1.833520 -5.695509 83.870990 -3.805040 -18.060774 -21.635472 3.886100 -0.000001 -8.915899
19.691987 14.722035 2.455947 -54.430672 -86.389734 97.312680 -7.642186 -2.673202 -0.465761 -12.550201 -5.612795 -87.005164 0.130996 5.709890 74.037323 3.768756 11.276965 -28.269458 -4.008399 -0.000000 -15.259200 11.921810 -0.227842 -3.912358 13.975508 -1.515878 -48.128949 -1.946882 -5.878906 85.366259 -3.707343 -17.231483 -22.526843 3.992700 0.000000 -7.359600
19.516382 14.747168 2.472759 -57.671779 -86.188646 100.359991 -7.758574 -2.694885 -0.655611 -12.472130 -4.935433 -85.916089 0.086685 5.703734 74.106773 3.801716 11.337894 -29.020328 -4.217600 -0.000000 -15.660300 11.786620 -0.014355 -3.892613 14.295670 -1.249706 -50.398482 -2.047172 -6.057851 86.644010 -3.592726 -16.324001 -23.238936 4.005600 -0.000000 -6.618900
19.340552 14.771317 2.488782 -60.240054 -85.992027 102.716701 -7.885817 -2.731012 -0.852231 -12.377957 -4.250971 -84.789431 0.042788 5.696133 74.164953 3.828783 11.400275 -29.714157 -4.414600 0.000000 -16.242900 11.623264 0.186490 -3.856724 14.619376 -0.948203 -52.672365 -2.134009 -6.229582 87.704155 -3.480589 -15.440344 -23.800643 3.961900 -0.000000 -6.540801
19.164345 14.794661 2.503778 -62.348711 -85.799623 104.600733 -8.018089 -2.774982 -1.053975 -12.266082 -3.561518 -83.634142 -0.000516 5.687080 74.212195 3.849638 11.461155 -30.349119 -4.597900 0.000000 -17.002200 11.437950 0.378791 -3.804520 14.945291 -0.612986 -54.952010 -2.206576 -6.393000 88.555932 -3.387737 -14.661458 -24.263720 3.901900 -0.000000 -6.851700
18.987491 14.817338 2.517507 -64.208703 -85.616083 106.231771 -8.149333 -2.818071 -1.259253 -12.145364 -2.871228 -82.459112 -0.044277 5.676871 74.244610 3.865356 11.520419 -30.929325 -4.768300 -0.000000 -17.904399 11.236826 0.567541 -3.735045 15.264555 -0.247694 -57.243332 -2.263597 -6.547608 89.207247 -3.327244 -14.045768 -24.678194 3.858400 -0.000000 -7.252800
18.810622 14.839701 2.530235 -65.962844 -85.435076 107.751321 -8.278969 -2.859146 -1.468096 -12.010139 -2.174942 -81.269186 -0.088314 5.665961 74.259334 3.875767 11.577826 -31.451714 -4.924700 0.000000 -18.990400 11.019830 0.751236 -3.650229 15.586334 0.146209 -59.540529 -2.302834 -6.692700 89.657849 -3.308592 -13.633444 -25.076069 3.853900 -0.000000 -7.517101
18.632847 14.861739 2.541652 -67.699435 -85.263179 109.255212 -8.403465 -2.892020 -1.679910 -11.876020 -1.475826 -80.069798 -0.135051 5.655002 74.251851 3.882671 11.631575 -31.933842 -5.070899 -0.000000 -20.144900 10.791004 0.930463 -3.548780 15.900974 0.564998 -61.843439 -2.322544 -6.828480 89.912750 -3.334648 -13.428416 -25.486784 3.900300 -0.000000 -7.467200
18.454413 14.883542 2.551744 -69.473247 -85.102140 110.801408 -8.521732 -2.913904 -1.894653 -11.752171 -0.773205 -78.864130 -0.185950 5.644473 74.218708 3.887508 11.682091 -32.387299 -5.210100 -0.000001 -21.303800 10.552102 1.102665 -3.430456 16.207154 1.005338 -64.144416 -2.320678 -6.954522 89.969435 -3.404357 -13.417465 -25.916539 3.998700 0.000000 -7.055900
18.279199 14.910634 2.544503 -85.059073 -84.900394 125.984091 -8.452893 -2.583396 -2.388312 -12.238746 0.847382 -77.443154 -0.334641 5.768852 74.062792 3.896946 11.702362 -32.980333 -5.388300 0.000000 -22.276900 10.506715 1.632554 -3.148291 15.921179 2.155058 -66.180397 -2.346118 -6.941199 89.894251 -3.488635 -13.549256 -26.265558 4.102900 -0.000000 -6.508000
18.098897 14.932108 2.552006 -86.230143 -84.744031 126.924833 -8.571724 -2.603377 -2.617548 -12.131991 1.570813 -76.205456 -0.396548 5.757987 73.966476 3.895828 11.739751 -33.379876 -5.511600 -0.000000 -23.422200 10.234236 1.760403 -3.008909 16.234467 2.617067 -68.407815 -2.291783 -7.046922 89.515696 -3.629351 -13.835029 -26.689767 4.277700 -0.000001 -5.601900
17.917381 14.952916 2.557592 -87.744990 -84.613560 128.225657 -8.680503 -2.597152 -2.845414 -12.077052 2.287733 -74.979952 -0.464139 5.749309 73.838449 3.897091 11.787639 -33.754845 -5.634100 0.000000 -24.508100 9.960850 1.879503 -2.847028 16.514830 3.092665 -70.609109 -2.211593 -7.137827 88.921089 -3.790796 -14.191278 -27.080468 4.463300 -0.000000 -4.661400
17.734060 14.973004 2.561309 -89.298407 -84.500754 129.571458 -8.783633 -2.575669 -3.074049 -12.052225 3.007609 -73.756031 -0.535867 5.741444 73.685734 3.896810 11.833769 -34.098115 -5.749200 -0.000000 -25.554400 9.686386 1.975324 -2.669017 16.788636 3.572425 -72.742974 -2.101608 -7.214057 88.095601 -3.964833 -14.578566 -27.418433 4.643700 -0.000000 -3.834601
